<?xml version="1.0" encoding="UTF-8" standalone="no"?>
<!-- Created with Inkscape (http://www.inkscape.org/) -->

<svg
   xmlns:dc="http://purl.org/dc/elements/1.1/"
   xmlns:cc="http://creativecommons.org/ns#"
   xmlns:rdf="http://www.w3.org/1999/02/22-rdf-syntax-ns#"
   xmlns:svg="http://www.w3.org/2000/svg"
   xmlns="http://www.w3.org/2000/svg"
   xmlns:sodipodi="http://sodipodi.sourceforge.net/DTD/sodipodi-0.dtd"
   xmlns:inkscape="http://www.inkscape.org/namespaces/inkscape"
   width="315"
   height="180"
   id="svg2995"
   version="1.1"
   inkscape:version="0.48.3.1 r9886"
   sodipodi:docname="nametags.svg"
   inkscape:export-filename="/storage/home/djwong/Desktop/nametags.png"
   inkscape:export-xdpi="90"
   inkscape:export-ydpi="90">
  <defs
     id="defs3" />
  <sodipodi:namedview
     id="base"
     pagecolor="#ffffff"
     bordercolor="#666666"
     borderopacity="1.0"
     inkscape:pageopacity="0.0"
     inkscape:pageshadow="2"
     inkscape:zoom="2.0980176"
     inkscape:cx="152.47676"
     inkscape:cy="90"
     inkscape:document-units="in"
     inkscape:current-layer="layer1"
     showgrid="false"
     units="mm"
     inkscape:window-width="1600"
     inkscape:window-height="835"
     inkscape:window-x="0"
     inkscape:window-y="34"
     inkscape:window-maximized="1" />
  <metadata
     id="metadata2999">
    <rdf:RDF>
      <cc:Work
         rdf:about="">
        <dc:format>image/svg+xml</dc:format>
        <dc:type
           rdf:resource="http://purl.org/dc/dcmitype/StillImage" />
        <dc:title></dc:title>
      </cc:Work>
    </rdf:RDF>
  </metadata>
  <g
     inkscape:label="Layer 1"
     inkscape:groupmode="layer"
     id="layer1"
     transform="translate(0,2.8346405)">
    <text
       xml:space="preserve"
       style="font-size:40px;font-style:normal;font-weight:normal;line-height:125%;letter-spacing:0px;word-spacing:0px;fill:#606060;fill-opacity:1;stroke:none;font-family:Sans"
       x="62.445038"
       y="54.484364"
       id="text3785"
       sodipodi:linespacing="125%"><tspan
         sodipodi:role="line"
         id="tspan3787"
         x="62.445038"
         y="54.484364"
         style="font-size:32px;font-style:normal;font-variant:normal;font-weight:300;font-stretch:normal;fill:#606060;fill-opacity:1;font-family:Source Sans Pro;-inkscape-font-specification:Source Sans Pro Light">outh Weekend '13</tspan></text>
    <path
       inkscape:connector-curvature="0"
       id="path3089"
       d="m 5.5030033,39.955606 0,-36.3203289 28.4891807,0 28.489182,0 0,36.3203289 0,36.320341 -28.489182,0 -28.4891807,0 0,-36.320341 z m 55.8306917,0 0,-35.4426985 -27.468358,-0.034023 C 11.979726,4.4516903 6.3751514,4.4791321 6.2896033,4.613904 6.2305523,4.706907 6.1813066,20.61375 6.1801682,39.962422 c -0.00173,27.22319 0.034653,35.216136 0.1602828,35.341761 0.1256128,0.125612 6.366226,0.154645 27.577797,0.128261 l 27.415447,-0.034 0,-35.442712 z m -53.6703763,0.545174 0,-33.6155308 0.2844289,-0.152219 C 8.1715028,6.6132801 8.2154232,6.4970615 8.1536518,6.1881974 l -0.078521,-0.3926021 1.9881669,0.01554 c 1.273261,0.00942 1.802806,0.051328 1.472673,0.1152531 -0.283521,0.05486 -0.594526,0.1845698 -0.691118,0.288274 -0.239871,0.2575005 -0.480722,1.017853 -0.483099,1.5251315 -0.001,0.2302586 -0.09674,0.6908709 -0.212573,1.0235741 -0.115834,0.332692 -0.2448196,0.9099107 -0.286634,1.2826884 -0.041813,0.372777 -0.1268624,0.74287 -0.1890026,0.822429 -0.1367437,0.175081 0.2088486,6.30897 0.4936566,8.761906 0.311399,2.6819 0.708349,5.288939 1.213668,7.970921 0.694227,3.684637 0.64548,3.50526 0.965217,3.551737 0.241871,0.0352 0.346614,-0.123729 0.711489,-1.079235 1.353583,-3.544685 2.5606,-8.438714 3.523539,-14.286743 0.248137,-1.506942 0.273573,-1.922524 0.146825,-2.398535 -0.08431,-0.316681 -0.153311,-0.835555 -0.153311,-1.15306 0,-0.317506 -0.09114,-0.927181 -0.202532,-1.354842 -0.120894,-0.464156 -0.202529,-1.3789401 -0.202529,-2.2695558 0,-1.6426327 -0.2099,-2.3606984 -0.724932,-2.4799659 -0.158243,-0.036613 -0.530753,-0.1210216 -0.827797,-0.1875011 -0.407384,-0.091237 -0.03997,-0.1242119 1.495438,-0.1344423 2.004696,-0.013303 2.040319,-0.00824 2.352629,0.3239918 0.17441,0.1856529 0.417444,0.3375421 0.540078,0.3375421 0.122631,0 0.365666,-0.1518892 0.54008,-0.3375421 l 0.31711,-0.3375537 20.094681,0 20.094682,0 -0.03404,34.126259 -0.034,34.126271 -26.160093,0.034 -26.1600898,0.03413 0,-33.61552 z M 45.352728,71.056784 c 0.882081,-0.516544 1.25807,-1.51782 1.060016,-2.822863 -0.181707,-1.197302 -0.917622,-1.822225 -2.24797,-1.908919 -0.778171,-0.05074 -1.018232,-0.01057 -1.523416,0.253428 -0.32983,0.172504 -0.720826,0.479896 -0.868883,0.683115 -0.292291,0.401205 -0.447701,1.655158 -0.301628,2.433795 0.115606,0.616242 0.716253,1.287711 1.365136,1.526073 0.686703,0.252272 1.945464,0.169936 2.516745,-0.164629 z m -5.311655,-0.208643 c 0.18661,-0.186608 0.229302,-3.708528 0.04841,-3.993574 -0.08267,-0.130276 -0.602968,-0.163343 -2.124492,-0.135018 l -2.015016,0.03745 -0.03749,2.015012 c -0.02833,1.521517 0.0047,2.041815 0.135018,2.124496 0.285053,0.180908 3.806969,0.138206 3.993579,-0.04839 z m 11.903999,-0.09912 c 0.201454,-0.376431 0.182517,-3.69268 -0.02226,-3.89744 -0.110873,-0.110899 -0.770054,-0.162027 -2.088059,-0.162027 -1.766023,0 -1.937641,0.02166 -2.065803,0.261164 -0.07687,0.143648 -0.139764,0.998264 -0.139764,1.899169 0,0.900891 0.06289,1.755508 0.139764,1.899134 0.128278,0.239699 0.300035,0.261182 2.088058,0.261182 1.788024,0 1.959785,-0.02144 2.088059,-0.261182 z m 5.940867,0 c 0.07688,-0.143626 0.139773,-0.998243 0.139773,-1.899134 0,-0.900905 -0.0629,-1.755521 -0.139773,-1.899169 -0.128153,-0.239466 -0.299776,-0.261164 -2.065803,-0.261164 -1.317996,0 -1.977177,0.05109 -2.088055,0.162027 -0.204768,0.20476 -0.223709,3.521009 -0.02226,3.89744 0.128274,0.239699 0.300031,0.261182 2.088054,0.261182 1.788032,0 1.959785,-0.02144 2.088063,-0.261182 z M 42.87649,55.050814 c 0.123717,-0.123704 0.162022,-3.158778 0.162022,-12.837307 l 0,-12.675284 6.886012,-10.313431 c 3.787304,-5.672382 6.88601,-10.4068821 6.88601,-10.5211108 0,-0.18125 -0.420345,-0.207691 -3.30111,-0.207691 l -3.301118,0 -0.320681,0.4388092 c -0.176369,0.2413485 -2.412351,3.6118476 -4.968846,7.4900016 -2.556497,3.878143 -4.708932,7.051369 -4.783195,7.051617 -0.07426,2.35e-4 -2.226707,-3.172803 -4.783224,-7.051193 -2.556509,-3.878378 -4.792495,-7.2490771 -4.968847,-7.4904256 l -0.320646,-0.4388092 -3.301115,0 c -2.550898,0 -3.30111,0.038379 -3.301081,0.1687709 1.7e-5,0.092885 3.098707,4.8168369 6.88598,10.4977889 l 6.885943,10.329019 3e-5,12.698617 c 2.7e-5,9.696634 0.03834,12.736911 0.162061,12.860628 0.114711,0.114666 0.915135,0.162028 2.740899,0.162028 1.825769,0 2.626199,-0.04733 2.740906,-0.162028 z M 33.686278,34.388235 c 0.836598,-0.834213 1.521086,-1.577566 1.521086,-1.651874 0,-0.223914 -3.017001,-3.177277 -3.245743,-3.177277 -0.211396,0 -3.235211,2.96563 -3.235211,3.172956 0,0.204725 3.022438,3.172968 3.230896,3.172968 0.114335,0 0.892374,-0.682548 1.728972,-1.516773 z m 16.337396,0 c 0.836599,-0.834213 1.52109,-1.577566 1.52109,-1.651874 0,-0.218145 -3.013975,-3.177277 -3.236161,-3.177277 -0.222674,0 -3.24479,2.951197 -3.24479,3.168647 0,0.218145 3.01397,3.177277 3.236156,3.177277 0.111439,0 0.887111,-0.682548 1.723705,-1.516773 z M 42.017836,14.172104 43.49503,12.669741 41.884927,11.055433 c -0.885554,-0.887861 -1.67086,-1.6143087 -1.745118,-1.6143087 -0.223859,0 -3.177186,3.0170517 -3.177186,3.2457457 0,0.116666 0.694083,0.896996 1.542405,1.733976 1.298846,1.281475 1.581348,1.500609 1.789014,1.387699 0.135632,-0.07381 0.911343,-0.810139 1.723794,-1.636441 z M 9.9211009,8.6145512 C 10.126581,8.4090737 9.985322,8.0909328 9.6886167,8.0909328 c -0.2967058,0 -0.4379604,0.3181409 -0.2324841,0.5236184 0.083308,0.08335 0.1879256,0.1514773 0.2324841,0.1514773 0.044558,0 0.1491755,-0.068163 0.2324842,-0.1514773 z M 17.222721,8.1989458 c 0.230882,-0.230883 0.200278,-0.6045312 -0.05761,-0.7034913 -0.241997,-0.092885 -0.590475,0.1328649 -0.590475,0.3824777 0,0.1663577 0.26555,0.4830389 0.405058,0.4830389 0.04456,0 0.153926,-0.072872 0.243035,-0.1620253 z m -4.7603,20.4070582 c -0.106907,-1.200257 0.128076,-7.57653 0.335575,-9.1059 0.187882,-1.384791 0.67217,-3.317652 1.217876,-4.860713 0.545642,-1.542896 1.536641,-3.754895 1.707787,-3.811945 0.218991,-0.07299 0.445974,0.950078 0.4448,2.004838 -0.002,2.008076 -0.491568,5.243874 -1.345265,8.895642 -0.543817,2.326241 -1.929802,7.272599 -2.14611,7.659115 -0.08994,0.160718 -0.150363,-0.0591 -0.214663,-0.781037 z m -0.721026,-1.950391 c -0.198101,-0.977144 -1.156877,-8.007769 -1.309995,-9.606079 -0.202277,-2.111486 -0.277032,-6.312466 -0.119628,-6.722656 0.07031,-0.183228 0.131553,-0.16418 0.398614,0.123976 0.309586,0.334058 0.35275,0.340473 2.29102,0.340473 1.086518,0 1.954194,0.04556 1.92817,0.101244 -0.02603,0.05568 -0.420832,0.860749 -0.877347,1.789013 -1.732983,3.523766 -1.980112,4.950396 -2.245352,12.961898 -0.02092,0.631219 -0.05036,1.086663 -0.06548,1.012108 z M 11.443875,9.9484852 c 0,-0.3665852 0.246697,-1.183163 0.413299,-1.3680507 0.05852,-0.064984 0.572558,-0.074402 1.142295,-0.020956 l 1.035886,0.097006 -0.384359,0.4043628 c -0.447521,0.4708189 -1.304517,0.9975219 -1.835815,1.1282799 -0.329178,0.08099 -0.371306,0.05368 -0.371306,-0.2406548 z m 1.957786,0.00116 c 0.222782,-0.1608008 0.659342,-0.5633743 0.970133,-0.8946183 0.5591,-0.5959019 0.568732,-0.5998692 0.911385,-0.3753551 0.270553,0.1772823 0.346309,0.3384719 0.346309,0.7368779 0,0.7431054 -0.16303,0.8346134 -1.478467,0.8297394 L 12.9966,10.241587 13.401661,9.9492282 z M 10.854837,9.0268603 c -0.04687,-0.2343205 -0.04647,-0.842819 0.001,-1.352228 0.09301,-1.0008537 0.08353,-0.9912355 1.229507,-1.2466641 0.39947,-0.089 0.383951,0.030138 -0.106695,0.8194272 -0.225766,0.3631827 -0.551785,1.0079992 -0.724484,1.4329169 -0.313069,0.7702887 -0.314256,0.771313 -0.399209,0.346548 z M 12.417969,8.0837627 C 12.12864,7.9680391 12.121454,7.9370065 12.302881,7.5861615 c 0.106436,-0.2058072 0.323136,-0.4915149 0.481574,-0.6348924 0.263598,-0.2385587 0.306341,-0.2424199 0.503268,-0.045442 0.19693,0.1969311 0.193704,0.2586071 -0.03796,0.7262241 -0.283348,0.5719566 -0.38847,0.629053 -0.831798,0.4517591 z M 14.873382,7.8345973 C 14.127713,7.281418 13.469169,6.6450185 13.469169,6.4776012 c 0,-0.085351 0.349057,-0.1426242 0.869974,-0.1426242 0.745945,0 0.899936,0.042734 1.080161,0.300082 0.220245,0.3144441 0.296802,1.5901979 0.09543,1.5901979 -0.06312,0 -0.351726,-0.175799 -0.641346,-0.3906596 z"
       style="fill:#ab3333;fill-opacity:1" />
    <text
       xml:space="preserve"
       style="font-size:40px;font-style:normal;font-weight:normal;line-height:125%;letter-spacing:0px;word-spacing:0px;fill:#000000;fill-opacity:1;stroke:none;font-family:Sans"
       x="25.2225"
       y="120.66536"
       id="text3009"
       sodipodi:linespacing="125%"><tspan
         sodipodi:role="line"
         id="tspan3011"
         x="25.2225"
         y="120.66536">Darrick J. Wong</tspan></text>
    <text
       xml:space="preserve"
       style="font-size:40px;font-style:normal;font-weight:normal;line-height:125%;letter-spacing:0px;word-spacing:0px;fill:#000000;fill-opacity:1;stroke:none;font-family:Sans"
       x="99.333595"
       y="152.33203"
       id="text3013"
       sodipodi:linespacing="125%"><tspan
         sodipodi:role="line"
         id="tspan3015"
         x="99.333595"
         y="152.33203"
         style="font-size:20px">Portland, Ore.</tspan></text>
    <rect
       style="fill:#ab3333;fill-opacity:1"
       id="rect3810"
       width="253.57271"
       height="1.4299221"
       x="61.486614"
       y="57.52861" />
  </g>
</svg>
