<?xml version="1.0" encoding="UTF-8" standalone="no"?>
<!-- Created with Inkscape (http://www.inkscape.org/) -->

<svg
   xmlns:dc="http://purl.org/dc/elements/1.1/"
   xmlns:cc="http://creativecommons.org/ns#"
   xmlns:rdf="http://www.w3.org/1999/02/22-rdf-syntax-ns#"
   xmlns:svg="http://www.w3.org/2000/svg"
   xmlns="http://www.w3.org/2000/svg"
   xmlns:sodipodi="http://sodipodi.sourceforge.net/DTD/sodipodi-0.dtd"
   xmlns:inkscape="http://www.inkscape.org/namespaces/inkscape"
   width="764.50818"
   height="974.65747"
   id="svg3999"
   version="1.1"
   inkscape:version="0.48.3.1 r9886"
   sodipodi:docname="yww.svg">
  <defs
     id="defs3" />
  <sodipodi:namedview
     inkscape:document-units="mm"
     id="base"
     pagecolor="#ffffff"
     bordercolor="#666666"
     borderopacity="1.0"
     inkscape:pageopacity="0.0"
     inkscape:pageshadow="2"
     inkscape:zoom="0.5"
     inkscape:cx="-2.9999998"
     inkscape:cy="549.77666"
     inkscape:current-layer="layer1"
     showgrid="false"
     units="in"
     width="8.49in"
     fit-margin-top="0"
     fit-margin-left="0"
     fit-margin-right="0"
     fit-margin-bottom="0"
     inkscape:window-width="1600"
     inkscape:window-height="835"
     inkscape:window-x="0"
     inkscape:window-y="34"
     inkscape:window-maximized="1" />
  <metadata
     id="metadata4">
    <rdf:RDF>
      <cc:Work
         rdf:about="">
        <dc:format>image/svg+xml</dc:format>
        <dc:type
           rdf:resource="http://purl.org/dc/dcmitype/StillImage" />
        <dc:title />
      </cc:Work>
    </rdf:RDF>
  </metadata>
  <g
     inkscape:label="Layer 1"
     inkscape:groupmode="layer"
     id="layer1"
     transform="translate(0,-77.70475)">
    <rect
       style="fill:#ffffff;fill-opacity:1"
       id="rect4778"
       x="0"
       y="77.662247"
       height="974.70001"
       width="764.54999" />
    <path
       inkscape:connector-curvature="0"
       id="path3089"
       d="m 0,565.03341 0,-487.32866 382.25406,0 382.25409,0 0,487.32866 0,487.32879 -382.25409,0 -382.25406,0 0,-487.32879 z m 749.10927,0 0,-475.553053 -368.5572,-0.457283 C 86.901547,88.658701 11.702062,89.02569 10.554233,90.834672 9.7619049,92.082594 9.101131,305.5128 9.0858714,565.12399 c -0.022236,365.26755 0.4649293,472.51311 2.1505936,474.19871 1.685387,1.6854 85.418954,2.0749 370.025585,1.721 l 367.84722,-0.4572 0,-475.55309 z m -720.123187,7.31484 0,-451.0369 3.816301,-2.04241 c 3.002265,-1.60676 3.591577,-3.16606 2.762726,-7.31026 l -1.053547,-5.26782 26.676251,0.20847 c 17.084008,0.13341 24.189169,0.68949 19.759624,1.54643 -3.804127,0.73596 -7.977039,2.4765 -9.2731,3.86784 -3.218455,3.45508 -6.450057,13.65714 -6.481994,20.46348 -0.0139,3.0896 -1.298005,9.26981 -2.852198,13.73383 -1.554194,4.46401 -3.284859,12.20873 -3.845876,17.2105 -0.561045,5.00176 -1.702202,9.96751 -2.535974,11.035 -1.834756,2.34919 2.802224,84.6507 6.623667,117.56299 4.178166,35.9844 9.504272,70.96436 16.284369,106.94996 9.31482,49.43875 8.660745,47.03194 12.950842,47.6555 3.245306,0.47169 4.650683,-1.66004 9.546406,-14.48069 18.16174,-47.5608 34.35691,-113.2266 47.27715,-191.69252 3.32936,-20.21946 3.67069,-25.79556 1.97004,-32.18244 -1.13138,-4.24898 -2.05707,-11.211 -2.05707,-15.47116 0,-4.26014 -1.22284,-12.44053 -2.71744,-18.17867 -1.62212,-6.22778 -2.71745,-18.50189 -2.71745,-30.45167 0,-22.0401 -2.81637,-31.67481 -9.7268,-33.27506 -2.12324,-0.49165 -7.12137,-1.62377 -11.10696,-2.51582 -5.46608,-1.22338 -0.53623,-1.6666 20.06506,-1.80386 26.89805,-0.17927 27.376,-0.1134 31.56642,4.34711 2.34015,2.49097 5.60108,4.52906 7.24652,4.52906 1.64542,0 4.90635,-2.03809 7.24653,-4.52906 l 4.25483,-4.52908 269.62074,0 269.62071,0 -0.45645,457.88965 -0.45642,457.88985 -351.00346,0.4572 -351.003447,0.4575 0,-451.03681 z M 534.68438,982.334 c 11.83534,-6.93072 16.88016,-20.3655 14.22276,-37.87588 -2.43806,-16.06477 -12.3122,-24.44973 -30.16219,-25.61296 -10.44113,-0.68014 -13.6621,-0.14453 -20.44046,3.40047 -4.42546,2.3145 -9.67168,6.43901 -11.65826,9.16572 -3.92181,5.38308 -6.007,22.20804 -4.04706,32.6554 1.5512,8.2685 9.61034,17.27802 18.31672,20.47613 9.21384,3.3849 26.10329,2.28004 33.76849,-2.20888 z m -71.26925,-2.79952 c 2.50388,-2.50379 3.07667,-49.75915 0.64951,-53.58377 -1.10915,-1.74803 -8.09035,-2.19164 -28.50542,-1.81168 l -27.0365,0.50309 -0.50314,27.03662 c -0.37994,20.41497 0.0637,27.396 1.81163,28.5053 3.82469,2.42736 51.08008,1.8545 53.58392,-0.64956 z m 159.7221,-1.33028 c 2.70303,-5.05065 2.44895,-49.54651 -0.29863,-52.29406 -1.48765,-1.4876 -10.33223,-2.17386 -28.0165,-2.17386 -23.6957,0 -25.99838,0.29101 -27.71796,3.50414 -1.03145,1.9273 -1.87537,13.39419 -1.87537,25.48202 0,12.08783 0.84392,23.55472 1.87537,25.48176 1.7211,3.21617 4.02568,3.50441 28.01653,3.50441 23.99088,0 26.29543,-0.28824 28.01656,-3.50441 z m 79.71175,0 c 1.03146,-1.92704 1.87534,-13.39393 1.87534,-25.48176 0,-12.08783 -0.84388,-23.55472 -1.87534,-25.48202 -1.7196,-3.21313 -4.02229,-3.50414 -27.71796,-3.50414 -17.68427,0 -26.52887,0.68626 -28.01653,2.17386 -2.74754,2.74755 -3.00163,47.24341 -0.29863,52.29406 1.72113,3.21617 4.02568,3.50441 28.01656,3.50441 23.99088,0 26.29543,-0.28824 28.01656,-3.50441 z M 501.45938,767.5737 c 1.65998,-1.65998 2.17393,-42.383 2.17393,-172.24484 l 0,-170.07093 92.39318,-138.38054 c 50.81625,-76.10928 92.39317,-139.63452 92.39317,-141.16723 0,-2.43186 -5.63996,-2.78669 -44.29275,-2.78669 l -44.29277,0 -4.30268,5.88779 c -2.36648,3.2383 -32.36781,48.462 -66.66963,100.4971 -34.30182,52.03512 -63.18217,94.61195 -64.17858,94.61517 -0.99637,0.003 -29.87691,-42.57098 -64.17898,-94.60933 -34.30204,-52.03833 -64.30338,-97.26464 -66.66964,-100.50294 l -4.30224,-5.88779 -44.29275,0 c -34.22672,0 -44.29268,0.51463 -44.29235,2.26452 2.5e-4,1.24551 41.57701,64.62995 92.39277,140.85432 l 92.39227,138.58973 4.2e-4,170.38385 c 3.4e-4,130.10479 0.51438,170.89778 2.17442,172.55781 1.5391,1.5391 12.27884,2.17398 36.77608,2.17398 24.49729,0 35.23705,-0.63488 36.77613,-2.17398 z M 378.14955,490.33318 c 11.22507,-11.19322 20.4092,-21.16706 20.4092,-22.16413 0,-3.00443 -40.48063,-42.63119 -43.5498,-42.63119 -2.8364,0 -43.40848,39.79147 -43.40848,42.57329 0,2.74686 40.55362,42.57332 43.35059,42.57332 1.53412,0 11.97345,-9.15808 23.19849,-20.35129 z m 219.20733,0 c 11.22506,-11.19322 20.4092,-21.16706 20.4092,-22.16413 0,-2.92697 -40.44002,-42.63119 -43.42125,-42.63119 -2.98767,0 -43.53703,39.59782 -43.53703,42.51539 0,2.927 40.44002,42.63122 43.4212,42.63122 1.4953,0 11.90281,-9.15808 23.12788,-20.35129 z M 489.9384,219.08281 509.75867,198.92485 488.15509,177.26487 c -11.88196,-11.913 -22.41878,-21.65998 -23.41516,-21.65998 -3.0036,0 -42.62997,40.48138 -42.62997,43.5498 0,1.56597 9.31288,12.03552 20.69526,23.26567 17.42731,17.19419 21.21779,20.13441 24.00415,18.61944 1.81983,-0.9895 12.22792,-10.87012 23.12903,-21.95699 z M 59.279899,144.51433 c 2.757001,-2.75697 0.861706,-7.02575 -3.119365,-7.02575 -3.981042,0 -5.876338,4.26878 -3.119366,7.02575 1.11781,1.11784 2.521521,2.0324 3.119366,2.0324 0.597846,0 2.001557,-0.91456 3.119365,-2.0324 z m 97.969631,-5.57646 c 3.09785,-3.09785 2.68723,-8.11121 -0.77312,-9.4391 -3.24697,-1.24596 -7.92271,1.78268 -7.92271,5.13185 0,2.23223 3.56303,6.48122 5.4349,6.48122 0.59782,0 2.06527,-0.97827 3.26093,-2.17397 z M 93.378122,412.74995 c -1.434424,-16.10447 1.718435,-101.65819 4.502562,-122.17858 2.520936,-18.58043 9.018886,-44.51463 16.340876,-65.2187 7.32119,-20.70177 20.61792,-50.3814 22.91426,-51.14684 2.93831,-0.97945 5.98385,12.74765 5.96813,26.89999 -0.03,26.9434 -6.59565,70.35969 -18.05012,119.35744 -7.29667,31.21233 -25.893151,97.58011 -28.795465,102.76627 -1.206781,2.15643 -2.017482,-0.79328 -2.880243,-10.47958 z M 83.703743,386.58058 C 81.045722,373.46974 68.181322,279.1361 66.126873,257.69076 c -2.714057,-28.33086 -3.7171,-84.69759 -1.605142,-90.20127 0.943422,-2.45851 1.765158,-2.20293 5.348397,1.66345 4.153928,4.48219 4.733069,4.56825 30.739822,4.56825 14.57838,0 26.22043,0.61143 25.87125,1.35874 -0.34917,0.74729 -5.64651,11.54916 -11.77184,24.0041 -23.252273,47.28019 -26.56815,66.42206 -30.127067,173.91653 -0.28037,8.4694 -0.675757,14.58036 -0.87855,13.58002 z M 79.711749,162.41234 c 0,-4.91859 3.31004,-15.87508 5.545465,-18.35579 0.785241,-0.87145 7.682273,-0.99827 15.326746,-0.28193 l 13.89901,1.30245 -5.15711,5.42552 c -6.00464,6.3172 -17.503405,13.38425 -24.632137,15.13874 -4.416732,1.08702 -4.982002,0.72065 -4.982002,-3.22899 z m 26.268631,0.0222 c 2.9892,-2.15749 8.84673,-7.55909 13.01678,-12.00356 7.50174,-7.99547 7.63099,-8.04869 12.2285,-5.03631 3.63018,2.37859 4.64663,4.54139 4.64663,9.88704 0,9.9707 -2.18748,11.19836 -19.83735,11.13298 l -15.48945,-0.0575 5.43489,-3.92276 z M 71.808311,150.05329 c -0.628781,-3.14396 -0.623529,-11.30859 0.0139,-18.14359 1.248085,-13.42897 1.120783,-13.29989 16.496946,-16.72715 5.359904,-1.19466 5.151691,0.40462 -1.431478,10.99476 -3.029225,4.87296 -7.403598,13.52473 -9.720795,19.2261 -4.200598,10.3354 -4.216524,10.34922 -5.356403,4.64988 z m 20.973354,-12.65402 c -3.882092,-1.55242 -3.978486,-1.96918 -1.544187,-6.67659 1.428004,-2.76145 4.335654,-6.59487 6.461482,-8.51871 3.53685,-3.20081 4.11037,-3.25264 6.75266,-0.61038 2.64229,2.64229 2.59901,3.46991 -0.50931,9.74422 -3.8018,7.67419 -5.212261,8.44022 -11.160645,6.06146 z m 32.945555,-3.34317 c -10.00502,-7.42236 -18.84102,-15.96123 -18.84102,-18.20752 0,-1.1459 4.68345,-1.91375 11.67288,-1.91375 10.00872,0 12.0749,0.57402 14.49305,4.02635 2.95516,4.21911 3.98235,21.33647 1.28033,21.33647 -0.84689,0 -4.71925,-2.3587 -8.60524,-5.24155 z"
       style="fill:#ab3333;fill-opacity:1" />
  </g>
</svg>
