<?xml version="1.0" encoding="UTF-8" standalone="no"?>
<!-- Created with Inkscape (http://www.inkscape.org/) -->

<svg
   xmlns:dc="http://purl.org/dc/elements/1.1/"
   xmlns:cc="http://creativecommons.org/ns#"
   xmlns:rdf="http://www.w3.org/1999/02/22-rdf-syntax-ns#"
   xmlns:svg="http://www.w3.org/2000/svg"
   xmlns="http://www.w3.org/2000/svg"
   xmlns:sodipodi="http://sodipodi.sourceforge.net/DTD/sodipodi-0.dtd"
   xmlns:inkscape="http://www.inkscape.org/namespaces/inkscape"
   width="764.50818"
   height="974.65747"
   id="svg3999"
   version="1.1"
   inkscape:version="0.48.3.1 r9886"
   sodipodi:docname="yww_small.svg">
  <defs
     id="defs3" />
  <sodipodi:namedview
     inkscape:document-units="mm"
     id="base"
     pagecolor="#ffffff"
     bordercolor="#666666"
     borderopacity="1.0"
     inkscape:pageopacity="0.0"
     inkscape:pageshadow="2"
     inkscape:zoom="0.5"
     inkscape:cx="38.860287"
     inkscape:cy="477.66489"
     inkscape:current-layer="layer1"
     showgrid="false"
     units="in"
     width="8.49in"
     fit-margin-top="0"
     fit-margin-left="0"
     fit-margin-right="0"
     fit-margin-bottom="0"
     inkscape:window-width="1600"
     inkscape:window-height="835"
     inkscape:window-x="0"
     inkscape:window-y="34"
     inkscape:window-maximized="1" />
  <metadata
     id="metadata4">
    <rdf:RDF>
      <cc:Work
         rdf:about="">
        <dc:format>image/svg+xml</dc:format>
        <dc:type
           rdf:resource="http://purl.org/dc/dcmitype/StillImage" />
        <dc:title />
      </cc:Work>
    </rdf:RDF>
  </metadata>
  <g
     inkscape:label="Layer 1"
     inkscape:groupmode="layer"
     id="layer1"
     transform="translate(0,-77.70475)">
    <rect
       style="fill:#ffffff;fill-opacity:1"
       id="rect4778"
       x="0"
       y="77.662254"
       height="974.70001"
       width="764.54999" />
    <path
       inkscape:connector-curvature="0"
       id="path3089"
       d="m 0,565.03341 0,-487.32866 382.25406,0 382.25409,0 0,487.32866 0,487.32879 -382.25409,0 -382.25406,0 z m 749.10927,0 0,-475.553053 -368.5572,-0.457283 C 86.901547,88.658701 11.702062,89.02569 10.554233,90.834672 9.7619049,92.082594 9.101131,305.5128 9.0858714,565.12399 c -0.022236,365.26755 0.4649293,472.51311 2.1505936,474.19871 1.685387,1.6854 85.418954,2.0749 370.025585,1.721 l 367.84722,-0.4572 z m -720.123187,7.31484 0,-465.62098 c 130.743407,-1.57022 345.012007,0.0778 433.299067,-0.0363 l 269.62071,0 -0.45645,457.88965 -0.45642,457.88988 -351.00346,0.4572 -351.003447,0.4575 0,-451.03684 z M 534.68438,982.334 c 11.83534,-6.93072 16.88016,-20.3655 14.22276,-37.87588 -2.43806,-16.06477 -12.3122,-24.44973 -30.16219,-25.61296 -10.44113,-0.68014 -13.6621,-0.14453 -20.44046,3.40047 -4.42546,2.3145 -9.67168,6.43901 -11.65826,9.16572 -3.92181,5.38308 -6.007,22.20804 -4.04706,32.6554 1.5512,8.2685 9.61034,17.27802 18.31672,20.47613 9.21384,3.3849 26.10329,2.28004 33.76849,-2.20888 z m -71.26925,-2.79952 c 2.50388,-2.50379 3.07667,-49.75915 0.64951,-53.58377 -1.10915,-1.74803 -8.09035,-2.19164 -28.50542,-1.81168 l -27.0365,0.50309 -0.50314,27.03662 c -0.37994,20.41497 0.0637,27.396 1.81163,28.5053 3.82469,2.42736 51.08008,1.8545 53.58392,-0.64956 z m 159.7221,-1.33028 c 2.70303,-5.05065 2.44895,-49.54651 -0.29863,-52.29406 -1.48765,-1.4876 -10.33223,-2.17386 -28.0165,-2.17386 -23.6957,0 -25.99838,0.29101 -27.71796,3.50414 -1.03145,1.9273 -1.87537,13.39419 -1.87537,25.48202 0,12.08783 0.84392,23.55472 1.87537,25.48176 1.7211,3.21617 4.02568,3.50441 28.01653,3.50441 23.99088,0 26.29543,-0.28824 28.01656,-3.50441 z m 79.71175,0 c 1.03146,-1.92704 1.87534,-13.39393 1.87534,-25.48176 0,-12.08783 -0.84388,-23.55472 -1.87534,-25.48202 -1.7196,-3.21313 -4.02229,-3.50414 -27.71796,-3.50414 -17.68427,0 -26.52887,0.68626 -28.01653,2.17386 -2.74754,2.74755 -3.00163,47.24341 -0.29863,52.29406 1.72113,3.21617 4.02568,3.50441 28.01656,3.50441 23.99088,0 26.29543,-0.28824 28.01656,-3.50441 z M 421.45938,829.5737 c 1.65998,-1.65998 2.17393,-42.383 2.17393,-172.24484 l 0,-170.07093 92.39318,-138.38054 c 50.81624,-76.10929 92.39317,-139.63452 92.39317,-141.16723 0,-2.43186 -5.63996,-2.78669 -44.29275,-2.78669 l -44.29277,0 -4.30268,5.88779 c -2.36648,3.2383 -32.36781,48.462 -66.66963,100.4971 -34.30182,52.03512 -63.18217,94.61195 -64.17858,94.61517 -0.99637,0.003 -29.87691,-42.57098 -64.17898,-94.60933 -34.30204,-52.03833 -63.73892,-97.76495 -66.66964,-100.50294 l -4.30224,-5.88779 -44.29275,0 c -34.22672,0 -44.29268,0.51463 -44.29235,2.26452 2.5e-4,1.24551 42.34619,64.12274 92.39277,140.85432 l 92.39227,138.58973 4.2e-4,170.38385 c 3.2e-4,130.10479 0.51438,170.89778 2.17442,172.55781 1.5391,1.5391 12.27884,2.17398 36.77608,2.17398 24.49729,0 35.23705,-0.63488 36.77613,-2.17398 z M 298.14955,552.33318 c 11.22507,-11.19322 20.4092,-21.16706 20.4092,-22.16413 0,-3.00443 -40.48063,-42.63119 -43.5498,-42.63119 -2.8364,0 -43.40848,39.79147 -43.40848,42.57329 0,2.74686 40.55362,42.57332 43.35059,42.57332 1.53412,0 11.97345,-9.15808 23.19849,-20.35129 z m 219.20733,0 c 11.22506,-11.19322 20.4092,-21.16706 20.4092,-22.16413 0,-2.92697 -40.44002,-42.63119 -43.42125,-42.63119 -2.98767,0 -43.53703,39.59782 -43.53703,42.51539 0,2.927 40.44002,42.63122 43.4212,42.63122 1.4953,0 11.90281,-9.15808 23.12788,-20.35129 z M 409.9384,281.08281 429.75867,260.92485 408.15509,239.26487 c -11.88197,-11.91299 -22.41878,-21.65998 -23.41516,-21.65998 -3.0036,0 -42.62997,40.48138 -42.62997,43.5498 0,1.56597 9.31288,12.03552 20.69526,23.26567 17.42731,17.19419 21.21779,20.13441 24.00415,18.61944 1.81983,-0.9895 12.2279,-10.87014 23.12903,-21.95699 z"
       style="fill:#ab3333;fill-opacity:1"
       sodipodi:nodetypes="cccccccccccscscscccccccccccccscscsccccscscccsssscsccsssccscsscssscsscsscscscssssssssssssssssscsssscs" />
  </g>
</svg>
