<?xml version="1.0" encoding="UTF-8" standalone="no"?>
<!-- Created with Inkscape (http://www.inkscape.org/) -->

<svg
   xmlns:dc="http://purl.org/dc/elements/1.1/"
   xmlns:cc="http://creativecommons.org/ns#"
   xmlns:rdf="http://www.w3.org/1999/02/22-rdf-syntax-ns#"
   xmlns:svg="http://www.w3.org/2000/svg"
   xmlns="http://www.w3.org/2000/svg"
   xmlns:sodipodi="http://sodipodi.sourceforge.net/DTD/sodipodi-0.dtd"
   xmlns:inkscape="http://www.inkscape.org/namespaces/inkscape"
   width="612pt"
   height="792pt"
   id="svg2990"
   version="1.1"
   inkscape:version="0.48.3.1 r9886"
   sodipodi:docname="yww_crib_cover.svg">
  <defs
     id="defs2992" />
  <sodipodi:namedview
     inkscape:document-units="in"
     pagecolor="#ffffff"
     bordercolor="#666666"
     borderopacity="1.0"
     inkscape:pageopacity="0.0"
     inkscape:pageshadow="2"
     inkscape:zoom="1.0182338"
     inkscape:cx="340"
     inkscape:cy="695.01968"
     inkscape:current-layer="layer1"
     id="namedview2994"
     showgrid="false"
     inkscape:window-width="1600"
     inkscape:window-height="835"
     inkscape:window-x="0"
     inkscape:window-y="34"
     inkscape:window-maximized="1"
     showguides="true"
     inkscape:guide-bbox="true" />
  <metadata
     id="metadata2996">
    <rdf:RDF>
      <cc:Work
         rdf:about="">
        <dc:format>image/svg+xml</dc:format>
        <dc:type
           rdf:resource="http://purl.org/dc/dcmitype/StillImage" />
        <dc:title></dc:title>
      </cc:Work>
    </rdf:RDF>
  </metadata>
  <g
     inkscape:label="Layer 1"
     inkscape:groupmode="layer"
     id="layer1">
    <text
       xml:space="preserve"
       style="font-size:92.04581450999999959px;font-style:normal;font-weight:normal;line-height:125%;letter-spacing:0px;word-spacing:0px;fill:#000000;fill-opacity:1;stroke:none;font-family:Sans"
       x="186.58701"
       y="312.35742"
       id="text3785"
       sodipodi:linespacing="125%"><tspan
         sodipodi:role="line"
         id="tspan3787"
         x="186.58701"
         y="312.35742"
         style="font-size:73.63665009000000339px;font-style:normal;font-variant:normal;font-weight:300;font-stretch:normal;fill:#000000;fill-opacity:1;font-family:Source Sans Pro;-inkscape-font-specification:Source Sans Pro Light">outh Weekend '13</tspan></text>
    <path
       inkscape:connector-curvature="0"
       id="path3089"
       d="m 53.555173,278.92468 0,-83.57835 65.557737,0 65.55775,0 0,83.57835 0,83.57839 -65.55775,0 -65.557737,0 0,-83.57839 z m 128.474527,0 0,-81.5588 -63.20869,-0.0783 c -50.361961,-0.0626 -63.258895,5.8e-4 -63.455753,0.3107 -0.135774,0.21401 -0.249215,36.81798 -0.25184,81.34208 -0.0048,62.64452 0.07988,81.03744 0.368854,81.32653 0.289041,0.28905 14.649595,0.35585 63.460499,0.29515 l 63.08693,-0.0783 0,-81.55884 z m -123.503344,1.25455 0,-77.35425 0.654523,-0.35025 c 0.514903,-0.27556 0.615965,-0.543 0.473825,-1.25376 l -0.180642,-0.90343 4.575044,0.0356 c 2.929962,0.0207 4.148534,0.11805 3.388855,0.26521 -0.652419,0.12633 -1.368097,0.42472 -1.590371,0.66337 -0.551976,0.59255 -1.106207,2.34223 -1.111682,3.50955 -0.0024,0.52986 -0.222523,1.58979 -0.48915,2.35538 -0.266571,0.7656 -0.563367,2.09384 -0.659604,2.95166 -0.09619,0.85782 -0.291923,1.70945 -0.434914,1.89253 -0.314658,0.40289 0.480592,14.51785 1.135982,20.16243 0.716577,6.17144 1.630012,12.17062 2.792807,18.34224 1.597525,8.47887 1.485344,8.06612 2.221108,8.17305 0.556583,0.081 0.797626,-0.2847 1.637246,-2.48346 3.114786,-8.15685 5.892309,-19.4187 8.108175,-32.87587 0.571009,-3.46771 0.629524,-4.42402 0.337858,-5.51939 -0.193992,-0.72873 -0.35279,-1.92272 -0.35279,-2.65336 0,-0.73061 -0.209638,-2.13357 -0.466054,-3.11768 -0.278179,-1.0681 -0.466046,-3.17314 -0.466046,-5.22259 0,-3.77993 -0.483017,-5.43229 -1.668169,-5.70674 -0.364133,-0.0842 -1.221333,-0.27849 -1.904893,-0.43147 -0.937438,-0.20987 -0.09205,-0.28583 3.441229,-0.30939 4.613104,-0.0306 4.695068,-0.0184 5.41374,0.74557 0.401342,0.42721 0.960591,0.77673 1.2428,0.77673 0.282193,0 0.841442,-0.34952 1.242808,-0.77673 l 0.729711,-0.77677 46.240778,0 46.24078,0 -0.0783,78.52948 -0.0783,78.5295 -60.19817,0.0783 -60.198163,0.0785 0,-77.3542 z m 86.728814,70.31379 c 2.02979,-1.18863 2.895,-3.49273 2.43925,-6.49581 -0.41813,-2.75518 -2.11157,-4.19321 -5.1729,-4.3927 -1.79068,-0.11667 -2.34309,-0.0244 -3.50561,0.58318 -0.75898,0.39695 -1.65872,1.10429 -1.99942,1.57194 -0.6726,0.92323 -1.03022,3.80875 -0.6941,5.60052 0.26604,1.41805 1.64822,2.9632 3.1414,3.51171 1.58019,0.58051 4.47678,0.39103 5.79138,-0.37884 z m -12.22288,-0.48011 c 0.42941,-0.42941 0.52765,-8.53386 0.11138,-9.18981 -0.19031,-0.29977 -1.38753,-0.37587 -4.88876,-0.3107 l -4.63686,0.0861 -0.0863,4.63686 c -0.0651,3.50121 0.0115,4.6985 0.3107,4.88876 0.65594,0.4163 8.76039,0.31804 9.18981,-0.11138 z m 27.39283,-0.22804 c 0.46356,-0.86622 0.41998,-8.4974 -0.0513,-8.96858 -0.25515,-0.2552 -1.77202,-0.37285 -4.80493,-0.37285 -4.06387,0 -4.45879,0.0499 -4.75371,0.60096 -0.17695,0.33057 -0.32162,2.29717 -0.32162,4.37027 0,2.07308 0.14474,4.03968 0.32162,4.3702 0.29518,0.55158 0.69042,0.60101 4.80492,0.60101 4.11451,0 4.50976,-0.0493 4.80492,-0.60101 z m 13.67078,0 c 0.17696,-0.33052 0.32166,-2.29712 0.32166,-4.3702 0,-2.0731 -0.14474,-4.0397 -0.32166,-4.37027 -0.29489,-0.55103 -0.68981,-0.60096 -4.7537,-0.60096 -3.03289,0 -4.54978,0.11759 -4.80491,0.37285 -0.4712,0.47118 -0.51479,8.10236 -0.0513,8.96858 0.29517,0.55158 0.69041,0.60101 4.80491,0.60101 4.11451,0 4.50976,-0.0493 4.80493,-0.60101 z M 139.557,313.66101 c 0.28468,-0.28466 0.37283,-7.26881 0.37283,-29.54052 l 0,-29.16766 15.84572,-23.7327 c 8.71512,-13.05297 15.8457,-23.94775 15.8457,-24.2106 0,-0.41709 -0.96728,-0.47793 -7.59633,-0.47793 l -7.59636,0 -0.73793,1.00976 c -0.40586,0.55536 -5.55117,8.31138 -11.43405,17.23558 -5.88285,8.92417 -10.83593,16.22623 -11.00681,16.22678 -0.17098,5.6e-4 -5.12398,-7.30107 -11.00688,-16.22581 -5.88291,-8.92472 -11.02824,-16.68119 -11.43405,-17.23655 l -0.73787,-1.00976 -7.59633,0 c -5.869988,0 -7.596327,0.0884 -7.596262,0.38836 2.4e-5,0.21378 7.130552,11.08423 15.845642,24.15695 l 15.84554,23.76855 8e-5,29.22137 c 7e-5,22.31337 0.0881,29.30948 0.37292,29.59418 0.26396,0.26386 2.10587,0.37285 6.30721,0.37285 4.20136,0 6.04326,-0.10884 6.30723,-0.37285 z m -21.14803,-47.54765 c 1.92514,-1.91964 3.50025,-3.63022 3.50025,-3.80119 0,-0.51527 -6.94256,-7.31138 -7.46892,-7.31138 -0.48646,0 -7.44469,6.82434 -7.44469,7.30143 0,0.4711 6.95506,7.30145 7.43475,7.30145 0.26311,0 2.05349,-1.57062 3.97861,-3.49031 z m 37.59473,0 c 1.92514,-1.91964 3.50025,-3.63022 3.50025,-3.80119 0,-0.50199 -6.93561,-7.31138 -7.44687,-7.31138 -0.51243,0 -7.46674,6.79113 -7.46674,7.29152 0,0.50197 6.93558,7.31136 7.44685,7.31136 0.25644,0 2.0414,-1.57062 3.96651,-3.49031 z m -18.4226,-46.52026 3.39925,-3.45714 -3.7051,-3.71476 c -2.03777,-2.04309 -3.84489,-3.71476 -4.01577,-3.71476 -0.51511,0 -7.31115,6.94266 -7.31115,7.46893 0,0.26846 1.59717,2.06411 3.54929,3.99013 2.98883,2.94886 3.63891,3.45311 4.11679,3.19329 0.3121,-0.16982 2.09713,-1.86424 3.96669,-3.76569 z M 63.72186,206.80438 c 0.472846,-0.47284 0.147736,-1.20493 -0.534988,-1.20493 -0.682749,0 -1.00781,0.73209 -0.534973,1.20493 0.191688,0.19169 0.432434,0.34855 0.534973,0.34855 0.102627,0 0.343285,-0.15694 0.534988,-0.34855 z M 80.52395,205.848 c 0.531288,-0.53129 0.460852,-1.39111 -0.132547,-1.61884 -0.556872,-0.21377 -1.358777,0.30576 -1.358777,0.88015 0,0.38282 0.611068,1.11154 0.9321,1.11154 0.102635,0 0.354218,-0.16775 0.559248,-0.37285 z m -10.954142,46.95961 c -0.246012,-2.76198 0.294709,-17.4347 0.772194,-20.954 0.432345,-3.1866 1.546765,-7.6344 2.802521,-11.1852 1.255596,-3.55044 3.53603,-8.64057 3.929849,-8.77185 0.503954,-0.16799 1.026266,2.18627 1.023553,4.61343 -0.0048,4.62088 -1.131149,12.06691 -3.09564,20.47016 -1.251406,5.35302 -4.440755,16.73531 -4.93851,17.62475 -0.206877,0.36981 -0.345999,-0.136 -0.493967,-1.79729 z m -1.659194,-4.48813 c -0.455859,-2.24857 -2.662147,-18.42704 -3.014479,-22.10499 -0.465476,-4.85884 -0.637504,-14.52591 -0.275281,-15.46982 0.161768,-0.42161 0.302712,-0.3778 0.917256,0.2853 0.712411,0.76872 0.811731,0.78347 5.271969,0.78347 2.500242,0 4.496901,0.10494 4.436997,0.23299 -0.05981,0.12818 -0.968385,1.98071 -2.018903,4.11677 -3.987842,8.10871 -4.556523,11.3916 -5.166877,29.82722 -0.04809,1.45253 -0.115978,2.50056 -0.15073,2.32901 z m -0.684635,-38.44554 c 0,-0.84355 0.567694,-2.72262 0.951062,-3.14807 0.134618,-0.14959 1.317546,-0.17121 2.628575,-0.0483 l 2.383734,0.22321 -0.88447,0.93049 c -1.029807,1.08342 -3.001892,2.29543 -4.224462,2.59633 -0.757495,0.1864 -0.854439,0.12357 -0.854439,-0.55376 z m 4.505162,0.002 c 0.512647,-0.37002 1.51723,-1.2964 2.232403,-2.05866 1.286575,-1.37124 1.308732,-1.38038 2.097222,-0.86372 0.622596,0.40794 0.796912,0.77886 0.796912,1.69566 0,1.70998 -0.375155,1.92056 -3.402158,1.90933 l -2.656487,-0.0115 0.932108,-0.67273 z m -5.860632,-2.12346 c -0.107918,-0.5392 -0.107002,-1.93944 0.0024,-3.11167 0.214005,-2.30313 0.192145,-2.28098 2.829277,-2.86877 0.91924,-0.2048 0.883524,0.0693 -0.24553,1.88563 -0.519503,0.83573 -1.269725,2.31955 -1.667133,3.29736 -0.720423,1.77254 -0.723161,1.7749 -0.918637,0.79745 z m 3.596993,-2.1702 c -0.66577,-0.26631 -0.682315,-0.33772 -0.264813,-1.14505 0.244904,-0.4736 0.743567,-1.13106 1.108157,-1.461 0.606581,-0.54894 0.704937,-0.55784 1.158099,-0.10447 0.453161,0.45317 0.445735,0.5951 -0.08745,1.67116 -0.652026,1.31614 -0.89392,1.44753 -1.914093,1.03956 z m 5.650279,-0.57338 c -1.715895,-1.27295 -3.231318,-2.7374 -3.231318,-3.12263 0,-0.19652 0.803237,-0.32821 2.001948,-0.32821 1.716521,0 2.070876,0.0983 2.485608,0.69052 0.506803,0.7236 0.682981,3.65928 0.219528,3.65928 -0.145199,0 -0.809379,-0.40453 -1.475839,-0.89896 z"
       style="fill:#ab3333;fill-opacity:1" />
    <rect
       style="fill:#ab3333;fill-opacity:1"
       id="rect3810"
       width="583.50763"
       height="3.2904584"
       x="182.38164"
       y="319.3627" />
    <text
       xml:space="preserve"
       style="font-size:40px;font-style:normal;font-weight:normal;line-height:125%;letter-spacing:0px;word-spacing:0px;fill:#000000;fill-opacity:1;stroke:none;font-family:Sans"
       x="36.111111"
       y="473.33334"
       id="text3063"
       sodipodi:linespacing="125%"><tspan
         sodipodi:role="line"
         id="tspan3065"
         x="36.111111"
         y="473.33334" /></text>
    <text
       xml:space="preserve"
       style="font-size:40px;font-style:normal;font-weight:normal;line-height:125%;letter-spacing:0px;word-spacing:0px;fill:#000000;fill-opacity:1;stroke:none;font-family:Sans"
       x="382.07657"
       y="523.33331"
       id="text3067"
       sodipodi:linespacing="125%"><tspan
         sodipodi:role="line"
         id="tspan3069"
         x="382.07657"
         y="523.33331"
         style="text-align:center;text-anchor:middle">Cèilidh and Ball Program</tspan><tspan
         sodipodi:role="line"
         x="382.07657"
         y="573.33331"
         id="tspan3071"
         style="text-align:center;text-anchor:middle">May 3-5, 2013</tspan><tspan
         sodipodi:role="line"
         x="382.07657"
         y="623.33331"
         id="tspan3073"
         style="text-align:center;text-anchor:middle">Vancouver, Wash.</tspan><tspan
         sodipodi:role="line"
         x="382.07657"
         y="673.33331"
         id="tspan3075"
         style="text-align:center;text-anchor:middle" /><tspan
         sodipodi:role="line"
         x="382.07657"
         y="723.33331"
         id="tspan3077"
         style="text-align:center;text-anchor:middle">RSCDS SW Washington State Branch</tspan></text>
  </g>
</svg>
